<?xml version="1.0" encoding="us-ascii" standalone="no"?><svg xmlns="http://www.w3.org/2000/svg" xmlns:xlink="http://www.w3.org/1999/xlink" contentStyleType="text/css" height="728px" preserveAspectRatio="none" style="width:424px;height:728px;background:#FFFFFF;" version="1.1" viewBox="0 0 424 728" width="424px" zoomAndPan="magnify"><defs/><g><rect fill="#DDDDDD" height="49.2188" id="_legend" rx="7.5" ry="7.5" style="stroke:#000000;stroke-width:1.0;" width="96" x="22" y="22"/><rect fill="#ADD8E6" height="17.6094" style="stroke:none;stroke-width:1.0;" width="86" x="27" y="29"/><text fill="#000000" font-family="sans-serif" font-size="14" lengthAdjust="spacing" textLength="69" x="31" y="43.5332">Application</text><rect fill="#FAFAD2" height="17.6094" style="stroke:none;stroke-width:1.0;" width="86" x="27" y="46.6094"/><text fill="#000000" font-family="sans-serif" font-size="14" lengthAdjust="spacing" textLength="78" x="31" y="61.1426">BMV080 API</text><line style="stroke:#000000;stroke-width:1.0;" x1="27" x2="113" y1="29" y2="29"/><line style="stroke:#000000;stroke-width:1.0;" x1="27" x2="113" y1="46.6094" y2="46.6094"/><line style="stroke:#000000;stroke-width:1.0;" x1="27" x2="113" y1="64.2188" y2="64.2188"/><line style="stroke:#000000;stroke-width:1.0;" x1="27" x2="27" y1="29" y2="64.2188"/><line style="stroke:#000000;stroke-width:1.0;" x1="113" x2="113" y1="29" y2="64.2188"/><polygon fill="#ADD8E6" points="20,84.2188,178,84.2188,185,107.8281,402,107.8281,402,716.2578,20,716.2578,20,84.2188" style="stroke:#000000;stroke-width:1.5;"/><line style="stroke:#000000;stroke-width:1.5;" x1="20" x2="185" y1="107.8281" y2="107.8281"/><text fill="#000000" font-family="sans-serif" font-size="14" lengthAdjust="spacing" textLength="152" x="24" y="100.752">Interrupt Service routine</text><rect fill="#F1F1F1" height="35.0938" rx="12.5" ry="12.5" style="stroke:#181818;stroke-width:0.5;" width="199" x="148" y="121.8281"/><text fill="#000000" font-family="sans-serif" font-size="12" lengthAdjust="spacing" textLength="179" x="158" y="144.2852">External interrupt by BMV080 IRQ</text><rect fill="#FAFAD2" height="303.3359" style="stroke:#000000;stroke-width:1.5;" width="338" x="30" y="263.9219"/><path d="M194,263.9219 L194,274.5313 L184,284.5313 L30,284.5313 " fill="none" style="stroke:#000000;stroke-width:1.5;"/><text fill="#000000" font-family="sans-serif" font-size="14" lengthAdjust="spacing" textLength="154" x="33" y="279.4551">bmv080_serve_interrupt</text><rect fill="#F1F1F1" height="35.0938" rx="12.5" ry="12.5" style="stroke:#181818;stroke-width:0.5;" width="221" x="137" y="301.5313"/><text fill="#000000" font-family="sans-serif" font-size="12" lengthAdjust="spacing" textLength="201" x="147" y="323.9883">fetch and process data from BMV080</text><path d="M40,371.625 L40,414.3281 L173,414.3281 L173,381.625 L163,371.625 L40,371.625 " fill="#FEFFDD" style="stroke:#181818;stroke-width:0.5;"/><path d="M163,371.625 L163,381.625 L173,381.625 L163,371.625 " fill="#FEFFDD" style="stroke:#181818;stroke-width:0.5;"/><text fill="#000000" font-family="sans-serif" font-size="13" lengthAdjust="spacing" textLength="100" x="46" y="390.1201">callback is called</text><text fill="#000000" font-family="sans-serif" font-size="13" lengthAdjust="spacing" textLength="108" x="46" y="406.4717">once every second</text><rect fill="#ADD8E6" height="35.0938" style="stroke:#181818;stroke-width:0.5;" width="184" x="155.5" y="463.2461"/><line style="stroke:#181818;stroke-width:0.5;" x1="160.5" x2="160.5" y1="463.2461" y2="498.3398"/><line style="stroke:#181818;stroke-width:0.5;" x1="334.5" x2="334.5" y1="463.2461" y2="498.3398"/><text fill="#000000" font-family="sans-serif" font-size="12" lengthAdjust="spacing" textLength="164" x="165.5" y="485.7031">bmv080_data_ready_callback</text><polygon fill="#F1F1F1" points="185,414.3281,310,414.3281,322,426.3281,310,438.3281,185,438.3281,173,426.3281,185,414.3281" style="stroke:#181818;stroke-width:0.5;"/><text fill="#000000" font-family="sans-serif" font-size="11" lengthAdjust="spacing" textLength="18" x="251.5" y="449.7471">yes</text><text fill="#000000" font-family="sans-serif" font-size="11" lengthAdjust="spacing" textLength="125" x="185" y="430.8291">1s passed since last call?</text><text fill="#000000" font-family="sans-serif" font-size="11" lengthAdjust="spacing" textLength="12" x="322" y="423.9111">no</text><polygon fill="#F1F1F1" points="247.5,523.2578,259.5,535.2578,247.5,547.2578,235.5,535.2578,247.5,523.2578" style="stroke:#181818;stroke-width:0.5;"/><polygon fill="#F1F1F1" points="247.5,191.9219,259.5,203.9219,247.5,215.9219,235.5,203.9219,247.5,191.9219" style="stroke:#181818;stroke-width:0.5;"/><polygon fill="#F1F1F1" points="214.5,615.2578,280.5,615.2578,292.5,627.2578,280.5,639.2578,214.5,639.2578,202.5,627.2578,214.5,615.2578" style="stroke:#181818;stroke-width:0.5;"/><text fill="#000000" font-family="sans-serif" font-size="11" lengthAdjust="spacing" textLength="12" x="251.5" y="650.6768">no</text><text fill="#000000" font-family="sans-serif" font-size="11" lengthAdjust="spacing" textLength="66" x="214.5" y="631.7588">IRQ line low ?</text><text fill="#000000" font-family="sans-serif" font-size="11" lengthAdjust="spacing" textLength="18" x="292.5" y="624.8408">yes</text><ellipse cx="247.5" cy="685.2578" fill="none" rx="11" ry="11" style="stroke:#222222;stroke-width:1.0;"/><ellipse cx="247.5" cy="685.2578" fill="#222222" rx="6" ry="6" style="stroke:#222222;stroke-width:1.0;"/><line style="stroke:#181818;stroke-width:1.0;" x1="247.5" x2="247.5" y1="438.3281" y2="463.2461"/><polygon fill="#181818" points="243.5,453.2461,247.5,463.2461,251.5,453.2461,247.5,457.2461" style="stroke:#181818;stroke-width:1.0;"/><line style="stroke:#181818;stroke-width:1.0;" x1="322" x2="349.5" y1="426.3281" y2="426.3281"/><polygon fill="#181818" points="345.5,470.793,349.5,480.793,353.5,470.793,349.5,474.793" style="stroke:#181818;stroke-width:1.0;"/><line style="stroke:#181818;stroke-width:1.0;" x1="349.5" x2="349.5" y1="426.3281" y2="535.2578"/><line style="stroke:#181818;stroke-width:1.0;" x1="349.5" x2="259.5" y1="535.2578" y2="535.2578"/><polygon fill="#181818" points="269.5,531.2578,259.5,535.2578,269.5,539.2578,265.5,535.2578" style="stroke:#181818;stroke-width:1.0;"/><line style="stroke:#181818;stroke-width:1.0;" x1="247.5" x2="247.5" y1="498.3398" y2="523.2578"/><polygon fill="#181818" points="243.5,513.2578,247.5,523.2578,251.5,513.2578,247.5,517.2578" style="stroke:#181818;stroke-width:1.0;"/><line style="stroke:#181818;stroke-width:1.0;" x1="247.5" x2="247.5" y1="336.625" y2="414.3281"/><polygon fill="#181818" points="243.5,404.3281,247.5,414.3281,251.5,404.3281,247.5,408.3281" style="stroke:#181818;stroke-width:1.0;"/><line style="stroke:#181818;stroke-width:1.0;" x1="247.5" x2="247.5" y1="215.9219" y2="301.5313"/><polygon fill="#181818" points="243.5,291.5313,247.5,301.5313,251.5,291.5313,247.5,295.5313" style="stroke:#181818;stroke-width:1.0;"/><line style="stroke:#181818;stroke-width:1.0;" x1="292.5" x2="380" y1="627.2578" y2="627.2578"/><polygon fill="#181818" points="376,425.5898,380,415.5898,384,425.5898,380,421.5898" style="stroke:#181818;stroke-width:1.0;"/><line style="stroke:#181818;stroke-width:1.0;" x1="380" x2="380" y1="203.9219" y2="627.2578"/><line style="stroke:#181818;stroke-width:1.0;" x1="380" x2="259.5" y1="203.9219" y2="203.9219"/><polygon fill="#181818" points="269.5,199.9219,259.5,203.9219,269.5,207.9219,265.5,203.9219" style="stroke:#181818;stroke-width:1.0;"/><line style="stroke:#181818;stroke-width:1.0;" x1="247.5" x2="247.5" y1="547.2578" y2="615.2578"/><polygon fill="#181818" points="243.5,605.2578,247.5,615.2578,251.5,605.2578,247.5,609.2578" style="stroke:#181818;stroke-width:1.0;"/><line style="stroke:#181818;stroke-width:1.0;" x1="247.5" x2="247.5" y1="156.9219" y2="191.9219"/><polygon fill="#181818" points="243.5,181.9219,247.5,191.9219,251.5,181.9219,247.5,185.9219" style="stroke:#181818;stroke-width:1.0;"/><line style="stroke:#181818;stroke-width:1.0;" x1="247.5" x2="247.5" y1="639.2578" y2="674.2578"/><polygon fill="#181818" points="243.5,664.2578,247.5,674.2578,251.5,664.2578,247.5,668.2578" style="stroke:#181818;stroke-width:1.0;"/><!--SRC=[RLB1QW8n5BplLmpseZTxArei2gK8BRGM2ZqjSVUj6ngJa4JjulhlVLdNNOM-KqXcvisR5qKRqZc2iL1KX0HSzUFTgzoKOQ5sDCFSMYKp4QJHgEiRm8jHEUcLoRz9ANEOOV7sDNuOO_w-Z50MLeryOaNs8pQ4mL87Scvd0px9xML6S6ONfAO1-fuu9asRoVClexLGa1rjNLsQB5SVqmRco98uExV21TauNM_t34ezTw6qf__h6qUqbLmEau92La9mDDQPZBn7Be90uSosDJ0zCpgAB32yzsp1UyhXfURXbF01cL3gQOHGaiQm8Z_gADe43Y0wwgvYHSAQ4uFqpPdocsSJbMbFheAdpB35xZckiX753QEFTjBc4eT97OcyIY_Twbv5US9Gcz6rBe-NjBAdgzXnAALYD6y3YlU8c2TFozQRMQETNilpFqjEVm00]--></g></svg>