<?xml version="1.0" encoding="us-ascii" standalone="no"?><svg xmlns="http://www.w3.org/2000/svg" xmlns:xlink="http://www.w3.org/1999/xlink" contentStyleType="text/css" height="887px" preserveAspectRatio="none" style="width:534px;height:887px;background:#FFFFFF;" version="1.1" viewBox="0 0 534 887" width="534px" zoomAndPan="magnify"><defs/><g><rect fill="#DDDDDD" height="66.8281" id="_legend" rx="7.5" ry="7.5" style="stroke:#000000;stroke-width:1.0;" width="96" x="22" y="22"/><rect fill="#ADD8E6" height="17.6094" style="stroke:none;stroke-width:1.0;" width="86" x="27" y="29"/><text fill="#000000" font-family="sans-serif" font-size="14" lengthAdjust="spacing" textLength="69" x="31" y="43.5332">Application</text><rect fill="#FAFAD2" height="17.6094" style="stroke:none;stroke-width:1.0;" width="86" x="27" y="46.6094"/><text fill="#000000" font-family="sans-serif" font-size="14" lengthAdjust="spacing" textLength="78" x="31" y="61.1426">BMV080 API</text><rect fill="#90EE90" height="17.6094" style="stroke:none;stroke-width:1.0;" width="86" x="27" y="64.2188"/><text fill="#000000" font-family="sans-serif" font-size="14" lengthAdjust="spacing" textLength="44" x="31" y="78.752">RT-OS</text><line style="stroke:#000000;stroke-width:1.0;" x1="27" x2="113" y1="29" y2="29"/><line style="stroke:#000000;stroke-width:1.0;" x1="27" x2="113" y1="46.6094" y2="46.6094"/><line style="stroke:#000000;stroke-width:1.0;" x1="27" x2="113" y1="64.2188" y2="64.2188"/><line style="stroke:#000000;stroke-width:1.0;" x1="27" x2="113" y1="81.8281" y2="81.8281"/><line style="stroke:#000000;stroke-width:1.0;" x1="27" x2="27" y1="29" y2="81.8281"/><line style="stroke:#000000;stroke-width:1.0;" x1="113" x2="113" y1="29" y2="81.8281"/><polygon fill="#ADD8E6" points="20,101.8281,168,101.8281,175,125.4375,512.5,125.4375,512.5,875.8672,20,875.8672,20,101.8281" style="stroke:#000000;stroke-width:1.5;"/><line style="stroke:#000000;stroke-width:1.5;" x1="20" x2="175" y1="125.4375" y2="125.4375"/><text fill="#000000" font-family="sans-serif" font-size="14" lengthAdjust="spacing" textLength="142" x="24" y="118.3613">bmv080_InterruptTask</text><ellipse cx="213.5" cy="149.4375" fill="#222222" rx="10" ry="10" style="stroke:#222222;stroke-width:1.0;"/><path d="M297.5,270.8086 L297.5,279.9844 L277.5,283.9844 L297.5,287.9844 L297.5,297.1602 A0,0 0 0 0 297.5,297.1602 L478.5,297.1602 A0,0 0 0 0 478.5,297.1602 L478.5,280.8086 L468.5,270.8086 L297.5,270.8086 A0,0 0 0 0 297.5,270.8086 " fill="#FEFFDD" style="stroke:#181818;stroke-width:0.5;"/><path d="M468.5,270.8086 L468.5,280.8086 L478.5,280.8086 L468.5,270.8086 " fill="#FEFFDD" style="stroke:#181818;stroke-width:0.5;"/><text fill="#000000" font-family="sans-serif" font-size="13" lengthAdjust="spacing" textLength="160" x="303.5" y="289.3037">semaphore is posted in ISR</text><rect fill="#90EE90" height="35.0938" rx="12.5" ry="12.5" style="stroke:#181818;stroke-width:0.5;" width="128" x="149.5" y="266.4375"/><text fill="#000000" font-family="sans-serif" font-size="12" lengthAdjust="spacing" textLength="108" x="159.5" y="288.8945">Wait for semaphore</text><rect fill="#FAFAD2" height="303.3359" style="stroke:#000000;stroke-width:1.5;" width="304" x="30" y="408.5313"/><path d="M194,408.5313 L194,419.1406 L184,429.1406 L30,429.1406 " fill="none" style="stroke:#000000;stroke-width:1.5;"/><text fill="#000000" font-family="sans-serif" font-size="14" lengthAdjust="spacing" textLength="154" x="33" y="424.0645">bmv080_serve_interrupt</text><rect fill="#F1F1F1" height="35.0938" rx="12.5" ry="12.5" style="stroke:#181818;stroke-width:0.5;" width="221" x="103" y="446.1406"/><text fill="#000000" font-family="sans-serif" font-size="12" lengthAdjust="spacing" textLength="201" x="113" y="468.5977">fetch and process data from BMV080</text><path d="M40,516.2344 L40,558.9375 L173,558.9375 L173,526.2344 L163,516.2344 L40,516.2344 " fill="#FEFFDD" style="stroke:#181818;stroke-width:0.5;"/><path d="M163,516.2344 L163,526.2344 L173,526.2344 L163,516.2344 " fill="#FEFFDD" style="stroke:#181818;stroke-width:0.5;"/><text fill="#000000" font-family="sans-serif" font-size="13" lengthAdjust="spacing" textLength="100" x="46" y="534.7295">callback is called</text><text fill="#000000" font-family="sans-serif" font-size="13" lengthAdjust="spacing" textLength="108" x="46" y="551.0811">once every second</text><rect fill="#ADD8E6" height="35.0938" style="stroke:#181818;stroke-width:0.5;" width="184" x="121.5" y="607.8555"/><line style="stroke:#181818;stroke-width:0.5;" x1="126.5" x2="126.5" y1="607.8555" y2="642.9492"/><line style="stroke:#181818;stroke-width:0.5;" x1="300.5" x2="300.5" y1="607.8555" y2="642.9492"/><text fill="#000000" font-family="sans-serif" font-size="12" lengthAdjust="spacing" textLength="164" x="131.5" y="630.3125">bmv080_data_ready_callback</text><polygon fill="#F1F1F1" points="185,558.9375,242,558.9375,254,570.9375,242,582.9375,185,582.9375,173,570.9375,185,558.9375" style="stroke:#181818;stroke-width:0.5;"/><text fill="#000000" font-family="sans-serif" font-size="11" lengthAdjust="spacing" textLength="18" x="217.5" y="594.3564">yes</text><text fill="#000000" font-family="sans-serif" font-size="11" lengthAdjust="spacing" textLength="57" x="185" y="575.4385">1s passed?</text><text fill="#000000" font-family="sans-serif" font-size="11" lengthAdjust="spacing" textLength="12" x="254" y="568.5205">no</text><polygon fill="#F1F1F1" points="213.5,667.8672,225.5,679.8672,213.5,691.8672,201.5,679.8672,213.5,667.8672" style="stroke:#181818;stroke-width:0.5;"/><polygon fill="#F1F1F1" points="213.5,336.5313,225.5,348.5313,213.5,360.5313,201.5,348.5313,213.5,336.5313" style="stroke:#181818;stroke-width:0.5;"/><polygon fill="#F1F1F1" points="180.5,759.8672,246.5,759.8672,258.5,771.8672,246.5,783.8672,180.5,783.8672,168.5,771.8672,180.5,759.8672" style="stroke:#181818;stroke-width:0.5;"/><text fill="#000000" font-family="sans-serif" font-size="11" lengthAdjust="spacing" textLength="12" x="217.5" y="795.2861">no</text><text fill="#000000" font-family="sans-serif" font-size="11" lengthAdjust="spacing" textLength="66" x="180.5" y="776.3682">IRQ line low ?</text><text fill="#000000" font-family="sans-serif" font-size="11" lengthAdjust="spacing" textLength="18" x="258.5" y="769.4502">yes</text><polygon fill="#F1F1F1" points="213.5,194.4375,225.5,206.4375,213.5,218.4375,201.5,206.4375,213.5,194.4375" style="stroke:#181818;stroke-width:0.5;"/><polygon fill="#F1F1F1" points="213.5,831.8672,213.5,831.8672,225.5,843.8672,213.5,855.8672,213.5,855.8672,201.5,843.8672,213.5,831.8672" style="stroke:#181818;stroke-width:0.5;"/><line style="stroke:#181818;stroke-width:1.0;" x1="213.5" x2="213.5" y1="582.9375" y2="607.8555"/><polygon fill="#181818" points="209.5,597.8555,213.5,607.8555,217.5,597.8555,213.5,601.8555" style="stroke:#181818;stroke-width:1.0;"/><line style="stroke:#181818;stroke-width:1.0;" x1="254" x2="315.5" y1="570.9375" y2="570.9375"/><polygon fill="#181818" points="311.5,615.4023,315.5,625.4023,319.5,615.4023,315.5,619.4023" style="stroke:#181818;stroke-width:1.0;"/><line style="stroke:#181818;stroke-width:1.0;" x1="315.5" x2="315.5" y1="570.9375" y2="679.8672"/><line style="stroke:#181818;stroke-width:1.0;" x1="315.5" x2="225.5" y1="679.8672" y2="679.8672"/><polygon fill="#181818" points="235.5,675.8672,225.5,679.8672,235.5,683.8672,231.5,679.8672" style="stroke:#181818;stroke-width:1.0;"/><line style="stroke:#181818;stroke-width:1.0;" x1="213.5" x2="213.5" y1="642.9492" y2="667.8672"/><polygon fill="#181818" points="209.5,657.8672,213.5,667.8672,217.5,657.8672,213.5,661.8672" style="stroke:#181818;stroke-width:1.0;"/><line style="stroke:#181818;stroke-width:1.0;" x1="213.5" x2="213.5" y1="481.2344" y2="558.9375"/><polygon fill="#181818" points="209.5,548.9375,213.5,558.9375,217.5,548.9375,213.5,552.9375" style="stroke:#181818;stroke-width:1.0;"/><line style="stroke:#181818;stroke-width:1.0;" x1="213.5" x2="213.5" y1="360.5313" y2="446.1406"/><polygon fill="#181818" points="209.5,436.1406,213.5,446.1406,217.5,436.1406,213.5,440.1406" style="stroke:#181818;stroke-width:1.0;"/><line style="stroke:#181818;stroke-width:1.0;" x1="258.5" x2="346" y1="771.8672" y2="771.8672"/><polygon fill="#181818" points="342,570.1992,346,560.1992,350,570.1992,346,566.1992" style="stroke:#181818;stroke-width:1.0;"/><line style="stroke:#181818;stroke-width:1.0;" x1="346" x2="346" y1="348.5313" y2="771.8672"/><line style="stroke:#181818;stroke-width:1.0;" x1="346" x2="225.5" y1="348.5313" y2="348.5313"/><polygon fill="#181818" points="235.5,344.5313,225.5,348.5313,235.5,352.5313,231.5,348.5313" style="stroke:#181818;stroke-width:1.0;"/><line style="stroke:#181818;stroke-width:1.0;" x1="213.5" x2="213.5" y1="691.8672" y2="759.8672"/><polygon fill="#181818" points="209.5,749.8672,213.5,759.8672,217.5,749.8672,213.5,753.8672" style="stroke:#181818;stroke-width:1.0;"/><line style="stroke:#181818;stroke-width:1.0;" x1="213.5" x2="213.5" y1="301.5313" y2="336.5313"/><polygon fill="#181818" points="209.5,326.5313,213.5,336.5313,217.5,326.5313,213.5,330.5313" style="stroke:#181818;stroke-width:1.0;"/><line style="stroke:#181818;stroke-width:1.0;" x1="213.5" x2="213.5" y1="218.4375" y2="266.4375"/><polygon fill="#181818" points="209.5,256.4375,213.5,266.4375,217.5,256.4375,213.5,260.4375" style="stroke:#181818;stroke-width:1.0;"/><line style="stroke:#181818;stroke-width:1.0;" x1="225.5" x2="490.5" y1="843.8672" y2="843.8672"/><polygon fill="#181818" points="486.5,535.1523,490.5,525.1523,494.5,535.1523,490.5,531.1523" style="stroke:#181818;stroke-width:1.0;"/><line style="stroke:#181818;stroke-width:1.0;" x1="490.5" x2="490.5" y1="206.4375" y2="843.8672"/><line style="stroke:#181818;stroke-width:1.0;" x1="490.5" x2="225.5" y1="206.4375" y2="206.4375"/><polygon fill="#181818" points="235.5,202.4375,225.5,206.4375,235.5,210.4375,231.5,206.4375" style="stroke:#181818;stroke-width:1.0;"/><line style="stroke:#181818;stroke-width:1.0;" x1="213.5" x2="213.5" y1="783.8672" y2="831.8672"/><polygon fill="#181818" points="209.5,821.8672,213.5,831.8672,217.5,821.8672,213.5,825.8672" style="stroke:#181818;stroke-width:1.0;"/><line style="stroke:#181818;stroke-width:1.0;" x1="213.5" x2="213.5" y1="159.4375" y2="194.4375"/><polygon fill="#181818" points="209.5,184.4375,213.5,194.4375,217.5,184.4375,213.5,188.4375" style="stroke:#181818;stroke-width:1.0;"/><!--SRC=[RLBBRi8m4BpxArRq0eTAz5Q5YWekLQHMRGDgrLDaaWsnCBPb6n0Y_7lN8Ks2w9xyc9sT6LlY6bKENXkGM7W6LDNJtQjObtukTpY5cJ5IPDmBhQ2ghW0lMkQe4ft_e9JwC8NvszVuSGopZ_W6QX7L59Bb_ViYtD5GMOzcXcSRlaOOhBPxQavZvT7QdV5BxZO3wAJ0YJdFhMSM3NBFUiJHDnSU2ct1uPQRKbkSG3rVQOzW0p3gxa0uCDfvp44eY1V91NlX1LPl34qIjUb6bqExnrJygOD_8u0JjTRzeQ82VLO2fu2DrHaw1pdt70ghjqrMapvU531y86dSESoVH-1BL30yeXkraDPJ-rhzohYKAyep60nhp6yWMcK8k4Txf3moJTAk8E4p1Fwhm-uDeYQCO2EroFDZ-ZUpQbjGEeIXqfrgOYLlTTLdPzOkcz0FfP3K52UV88KYUvGb9K0-Qlz1quMoZsTdjX5Iiby0]--></g></svg>