<?xml version="1.0" encoding="us-ascii" standalone="no"?><svg xmlns="http://www.w3.org/2000/svg" xmlns:xlink="http://www.w3.org/1999/xlink" contentStyleType="text/css" height="324px" preserveAspectRatio="none" style="width:358px;height:324px;background:#FFFFFF;" version="1.1" viewBox="0 0 358 324" width="358px" zoomAndPan="magnify"><defs/><g><rect fill="#DDDDDD" height="66.8281" id="_legend" rx="7.5" ry="7.5" style="stroke:#000000;stroke-width:1.0;" width="96" x="22" y="22"/><rect fill="#ADD8E6" height="17.6094" style="stroke:none;stroke-width:1.0;" width="86" x="27" y="29"/><text fill="#000000" font-family="sans-serif" font-size="14" lengthAdjust="spacing" textLength="69" x="31" y="43.5332">Application</text><rect fill="#FAFAD2" height="17.6094" style="stroke:none;stroke-width:1.0;" width="86" x="27" y="46.6094"/><text fill="#000000" font-family="sans-serif" font-size="14" lengthAdjust="spacing" textLength="78" x="31" y="61.1426">BMV080 API</text><rect fill="#90EE90" height="17.6094" style="stroke:none;stroke-width:1.0;" width="86" x="27" y="64.2188"/><text fill="#000000" font-family="sans-serif" font-size="14" lengthAdjust="spacing" textLength="44" x="31" y="78.752">RT-OS</text><line style="stroke:#000000;stroke-width:1.0;" x1="27" x2="113" y1="29" y2="29"/><line style="stroke:#000000;stroke-width:1.0;" x1="27" x2="113" y1="46.6094" y2="46.6094"/><line style="stroke:#000000;stroke-width:1.0;" x1="27" x2="113" y1="64.2188" y2="64.2188"/><line style="stroke:#000000;stroke-width:1.0;" x1="27" x2="113" y1="81.8281" y2="81.8281"/><line style="stroke:#000000;stroke-width:1.0;" x1="27" x2="27" y1="29" y2="81.8281"/><line style="stroke:#000000;stroke-width:1.0;" x1="113" x2="113" y1="29" y2="81.8281"/><polygon fill="#ADD8E6" points="20,101.8281,183,101.8281,190,125.4375,336,125.4375,336,312.1406,20,312.1406,20,101.8281" style="stroke:#000000;stroke-width:1.5;"/><line style="stroke:#000000;stroke-width:1.5;" x1="20" x2="190" y1="125.4375" y2="125.4375"/><text fill="#000000" font-family="sans-serif" font-size="14" lengthAdjust="spacing" textLength="157" x="24" y="118.3613">Interrupt Service Routine</text><ellipse cx="85.5" cy="149.4375" fill="#222222" rx="10" ry="10" style="stroke:#222222;stroke-width:1.0;"/><path d="M161,194.4375 L161,211.7891 L141,215.7891 L161,219.7891 L161,237.1406 A0,0 0 0 0 161,237.1406 L326,237.1406 A0,0 0 0 0 326,237.1406 L326,204.4375 L316,194.4375 L161,194.4375 A0,0 0 0 0 161,194.4375 " fill="#FEFFDD" style="stroke:#181818;stroke-width:0.5;"/><path d="M316,194.4375 L316,204.4375 L326,204.4375 L316,194.4375 " fill="#FEFFDD" style="stroke:#181818;stroke-width:0.5;"/><text fill="#000000" font-family="sans-serif" font-size="13" lengthAdjust="spacing" textLength="144" x="167" y="212.9326">Semaphore is consumed</text><text fill="#000000" font-family="sans-serif" font-size="13" lengthAdjust="spacing" textLength="140" x="167" y="229.2842">in bmv080_InterruptTask</text><rect fill="#90EE90" height="35.0938" rx="12.5" ry="12.5" style="stroke:#181818;stroke-width:0.5;" width="111" x="30" y="198.2422"/><text fill="#000000" font-family="sans-serif" font-size="12" lengthAdjust="spacing" textLength="91" x="40" y="220.6992">post semaphore</text><ellipse cx="85.5" cy="282.1406" fill="none" rx="10" ry="10" style="stroke:#222222;stroke-width:1.5;"/><line style="stroke:#222222;stroke-width:2.5;" x1="79.3128" x2="91.6872" y1="275.9534" y2="288.3278"/><line style="stroke:#222222;stroke-width:2.5;" x1="91.6872" x2="79.3128" y1="275.9534" y2="288.3278"/><line style="stroke:#181818;stroke-width:1.0;" x1="85.5" x2="85.5" y1="159.4375" y2="198.2422"/><polygon fill="#181818" points="81.5,188.2422,85.5,198.2422,89.5,188.2422,85.5,192.2422" style="stroke:#181818;stroke-width:1.0;"/><line style="stroke:#181818;stroke-width:1.0;" x1="85.5" x2="85.5" y1="233.3359" y2="272.1406"/><polygon fill="#181818" points="81.5,262.1406,85.5,272.1406,89.5,262.1406,85.5,266.1406" style="stroke:#181818;stroke-width:1.0;"/><!--SRC=[PL31IiD04BtlLppgMUXHL0BjHGeL9Ic29rcJCLswcLbs9_LW_7UpMwoAxpJ3UxptPZprn1rK0ZozgS6CwVPYw_gzhlr85LOXUDTQTSAOfZ-2E_4TSItTCtalxnNMzq_BgoLMZvj_qaZ45UhTvKEJkJdKbsWJR7kmFM6nOQKOnw1eA1vTIwXbLCUqm4yVV1JRf3QUolwolmwI58a66_OIwQRmB4g8MLFMZEPR0PVG2gTneExCEiRhS9pFU3aNsjbqA7n-LJOqfzby6lC5]--></g></svg>