<?xml version="1.0" encoding="us-ascii" standalone="no"?><svg xmlns="http://www.w3.org/2000/svg" xmlns:xlink="http://www.w3.org/1999/xlink" contentStyleType="text/css" height="917px" preserveAspectRatio="none" style="width:398px;height:917px;background:#FFFFFF;" version="1.1" viewBox="0 0 398 917" width="398px" zoomAndPan="magnify"><defs/><g><rect fill="#DDDDDD" height="49.2188" id="_legend" rx="7.5" ry="7.5" style="stroke:#000000;stroke-width:1.0;" width="96" x="22" y="22"/><rect fill="#ADD8E6" height="17.6094" style="stroke:none;stroke-width:1.0;" width="86" x="27" y="29"/><text fill="#000000" font-family="sans-serif" font-size="14" lengthAdjust="spacing" textLength="69" x="31" y="43.5332">Application</text><rect fill="#FAFAD2" height="17.6094" style="stroke:none;stroke-width:1.0;" width="86" x="27" y="46.6094"/><text fill="#000000" font-family="sans-serif" font-size="14" lengthAdjust="spacing" textLength="78" x="31" y="61.1426">BMV080 API</text><line style="stroke:#000000;stroke-width:1.0;" x1="27" x2="113" y1="29" y2="29"/><line style="stroke:#000000;stroke-width:1.0;" x1="27" x2="113" y1="46.6094" y2="46.6094"/><line style="stroke:#000000;stroke-width:1.0;" x1="27" x2="113" y1="64.2188" y2="64.2188"/><line style="stroke:#000000;stroke-width:1.0;" x1="27" x2="27" y1="29" y2="64.2188"/><line style="stroke:#000000;stroke-width:1.0;" x1="113" x2="113" y1="29" y2="64.2188"/><polygon fill="#ADD8E6" points="20,84.2188,95,84.2188,102,107.8281,376,107.8281,376,905,20,905,20,84.2188" style="stroke:#000000;stroke-width:1.5;"/><line style="stroke:#000000;stroke-width:1.5;" x1="20" x2="102" y1="107.8281" y2="107.8281"/><text fill="#000000" font-family="sans-serif" font-size="14" lengthAdjust="spacing" textLength="69" x="24" y="100.752">Application</text><ellipse cx="204.5" cy="131.8281" fill="#222222" rx="10" ry="10" style="stroke:#222222;stroke-width:1.0;"/><rect fill="#FAFAD2" height="35.0938" style="stroke:#181818;stroke-width:0.5;" width="99" x="155" y="176.8281"/><line style="stroke:#181818;stroke-width:0.5;" x1="160" x2="160" y1="176.8281" y2="211.9219"/><line style="stroke:#181818;stroke-width:0.5;" x1="249" x2="249" y1="176.8281" y2="211.9219"/><text fill="#000000" font-family="sans-serif" font-size="12" lengthAdjust="spacing" textLength="79" x="165" y="199.2852">bmv080_open</text><rect fill="#FAFAD2" height="35.0938" style="stroke:#181818;stroke-width:0.5;" width="248" x="80.5" y="246.9219"/><line style="stroke:#181818;stroke-width:0.5;" x1="85.5" x2="85.5" y1="246.9219" y2="282.0156"/><line style="stroke:#181818;stroke-width:0.5;" x1="323.5" x2="323.5" y1="246.9219" y2="282.0156"/><text fill="#000000" font-family="sans-serif" font-size="12" lengthAdjust="spacing" textLength="228" x="90.5" y="269.3789">bmv080_start_continuous_measurement</text><polygon fill="#F1F1F1" points="160.5,389.0156,248.5,389.0156,260.5,401.0156,248.5,413.0156,160.5,413.0156,148.5,401.0156,160.5,389.0156" style="stroke:#181818;stroke-width:0.5;"/><text fill="#000000" font-family="sans-serif" font-size="11" lengthAdjust="spacing" textLength="88" x="160.5" y="405.5166">use ext. interrupt?</text><text fill="#000000" font-family="sans-serif" font-size="11" lengthAdjust="spacing" textLength="12" x="136.5" y="398.5986">no</text><text fill="#000000" font-family="sans-serif" font-size="11" lengthAdjust="spacing" textLength="18" x="260.5" y="398.5986">yes</text><polygon fill="none" points="40,423.0156,87,423.0156,94,446.625,213,446.625,213,585.8125,40,585.8125,40,423.0156" style="stroke:#000000;stroke-width:1.5;"/><line style="stroke:#000000;stroke-width:1.5;" x1="40" x2="94" y1="446.625" y2="446.625"/><text fill="#000000" font-family="sans-serif" font-size="14" lengthAdjust="spacing" textLength="41" x="44" y="439.5488">polling</text><rect fill="#FAFAD2" height="35.0938" style="stroke:#181818;stroke-width:0.5;" width="153" x="50" y="460.625"/><line style="stroke:#181818;stroke-width:0.5;" x1="55" x2="55" y1="460.625" y2="495.7188"/><line style="stroke:#181818;stroke-width:0.5;" x1="198" x2="198" y1="460.625" y2="495.7188"/><text fill="#000000" font-family="sans-serif" font-size="12" lengthAdjust="spacing" textLength="133" x="60" y="483.082">bmv080_serve_interrupt</text><rect fill="#F1F1F1" height="35.0938" rx="12.5" ry="12.5" style="stroke:#181818;stroke-width:0.5;" width="93" x="80" y="530.7188"/><text fill="#000000" font-family="sans-serif" font-size="12" lengthAdjust="spacing" textLength="73" x="90" y="553.1758">sleep 100ms</text><polygon fill="none" points="233,423.0156,318,423.0156,325,446.625,332,446.625,332,515.7188,233,515.7188,233,423.0156" style="stroke:#000000;stroke-width:1.5;"/><line style="stroke:#000000;stroke-width:1.5;" x1="233" x2="325" y1="446.625" y2="446.625"/><text fill="#000000" font-family="sans-serif" font-size="14" lengthAdjust="spacing" textLength="79" x="237" y="439.5488">ext. interrupt</text><rect fill="#F1F1F1" height="35.0938" rx="12.5" ry="12.5" style="stroke:#181818;stroke-width:0.5;" width="51" x="257" y="460.625"/><text fill="#000000" font-family="sans-serif" font-size="12" lengthAdjust="spacing" textLength="31" x="267" y="483.082">sleep</text><polygon fill="#F1F1F1" points="204.5,591.8125,216.5,603.8125,204.5,615.8125,192.5,603.8125,204.5,591.8125" style="stroke:#181818;stroke-width:0.5;"/><polygon fill="#F1F1F1" points="204.5,317.0156,216.5,329.0156,204.5,341.0156,192.5,329.0156,204.5,317.0156" style="stroke:#181818;stroke-width:0.5;"/><polygon fill="#F1F1F1" points="145.5,663.8125,263.5,663.8125,275.5,675.8125,263.5,687.8125,145.5,687.8125,133.5,675.8125,145.5,663.8125" style="stroke:#181818;stroke-width:0.5;"/><text fill="#000000" font-family="sans-serif" font-size="11" lengthAdjust="spacing" textLength="12" x="208.5" y="699.2314">no</text><text fill="#000000" font-family="sans-serif" font-size="11" lengthAdjust="spacing" textLength="118" x="145.5" y="680.3135">continue measurement ?</text><text fill="#000000" font-family="sans-serif" font-size="11" lengthAdjust="spacing" textLength="18" x="275.5" y="673.3955">yes</text><rect fill="#FAFAD2" height="35.0938" style="stroke:#181818;stroke-width:0.5;" width="188" x="110.5" y="722.8125"/><line style="stroke:#181818;stroke-width:0.5;" x1="115.5" x2="115.5" y1="722.8125" y2="757.9063"/><line style="stroke:#181818;stroke-width:0.5;" x1="293.5" x2="293.5" y1="722.8125" y2="757.9063"/><text fill="#000000" font-family="sans-serif" font-size="12" lengthAdjust="spacing" textLength="168" x="120.5" y="745.2695">bmv080_stop_measurement()</text><rect fill="#FAFAD2" height="35.0938" style="stroke:#181818;stroke-width:0.5;" width="109" x="150" y="792.9063"/><line style="stroke:#181818;stroke-width:0.5;" x1="155" x2="155" y1="792.9063" y2="828"/><line style="stroke:#181818;stroke-width:0.5;" x1="254" x2="254" y1="792.9063" y2="828"/><text fill="#000000" font-family="sans-serif" font-size="12" lengthAdjust="spacing" textLength="89" x="160" y="815.3633">bmv080_close()</text><ellipse cx="204.5" cy="874" fill="none" rx="11" ry="11" style="stroke:#222222;stroke-width:1.0;"/><ellipse cx="204.5" cy="874" fill="#222222" rx="6" ry="6" style="stroke:#222222;stroke-width:1.0;"/><line style="stroke:#181818;stroke-width:1.0;" x1="204.5" x2="204.5" y1="141.8281" y2="176.8281"/><polygon fill="#181818" points="200.5,166.8281,204.5,176.8281,208.5,166.8281,204.5,170.8281" style="stroke:#181818;stroke-width:1.0;"/><line style="stroke:#181818;stroke-width:1.0;" x1="204.5" x2="204.5" y1="211.9219" y2="246.9219"/><polygon fill="#181818" points="200.5,236.9219,204.5,246.9219,208.5,236.9219,204.5,240.9219" style="stroke:#181818;stroke-width:1.0;"/><line style="stroke:#181818;stroke-width:1.0;" x1="126.5" x2="126.5" y1="495.7188" y2="530.7188"/><polygon fill="#181818" points="122.5,520.7188,126.5,530.7188,130.5,520.7188,126.5,524.7188" style="stroke:#181818;stroke-width:1.0;"/><line style="stroke:#181818;stroke-width:1.0;" x1="148.5" x2="126.5" y1="401.0156" y2="401.0156"/><line style="stroke:#181818;stroke-width:1.0;" x1="126.5" x2="126.5" y1="401.0156" y2="460.625"/><polygon fill="#181818" points="122.5,450.625,126.5,460.625,130.5,450.625,126.5,454.625" style="stroke:#181818;stroke-width:1.0;"/><line style="stroke:#181818;stroke-width:1.0;" x1="260.5" x2="282.5" y1="401.0156" y2="401.0156"/><line style="stroke:#181818;stroke-width:1.0;" x1="282.5" x2="282.5" y1="401.0156" y2="460.625"/><polygon fill="#181818" points="278.5,450.625,282.5,460.625,286.5,450.625,282.5,454.625" style="stroke:#181818;stroke-width:1.0;"/><line style="stroke:#181818;stroke-width:1.0;" x1="126.5" x2="126.5" y1="565.8125" y2="603.8125"/><line style="stroke:#181818;stroke-width:1.0;" x1="126.5" x2="192.5" y1="603.8125" y2="603.8125"/><polygon fill="#181818" points="182.5,599.8125,192.5,603.8125,182.5,607.8125,186.5,603.8125" style="stroke:#181818;stroke-width:1.0;"/><line style="stroke:#181818;stroke-width:1.0;" x1="282.5" x2="282.5" y1="495.7188" y2="603.8125"/><line style="stroke:#181818;stroke-width:1.0;" x1="282.5" x2="216.5" y1="603.8125" y2="603.8125"/><polygon fill="#181818" points="226.5,599.8125,216.5,603.8125,226.5,607.8125,222.5,603.8125" style="stroke:#181818;stroke-width:1.0;"/><line style="stroke:#181818;stroke-width:1.0;" x1="204.5" x2="204.5" y1="341.0156" y2="389.0156"/><polygon fill="#181818" points="200.5,379.0156,204.5,389.0156,208.5,379.0156,204.5,383.0156" style="stroke:#181818;stroke-width:1.0;"/><line style="stroke:#181818;stroke-width:1.0;" x1="275.5" x2="354" y1="675.8125" y2="675.8125"/><polygon fill="#181818" points="350,512.4141,354,502.4141,358,512.4141,354,508.4141" style="stroke:#181818;stroke-width:1.0;"/><line style="stroke:#181818;stroke-width:1.0;" x1="354" x2="354" y1="329.0156" y2="675.8125"/><line style="stroke:#181818;stroke-width:1.0;" x1="354" x2="216.5" y1="329.0156" y2="329.0156"/><polygon fill="#181818" points="226.5,325.0156,216.5,329.0156,226.5,333.0156,222.5,329.0156" style="stroke:#181818;stroke-width:1.0;"/><line style="stroke:#181818;stroke-width:1.0;" x1="204.5" x2="204.5" y1="615.8125" y2="663.8125"/><polygon fill="#181818" points="200.5,653.8125,204.5,663.8125,208.5,653.8125,204.5,657.8125" style="stroke:#181818;stroke-width:1.0;"/><line style="stroke:#181818;stroke-width:1.0;" x1="204.5" x2="204.5" y1="282.0156" y2="317.0156"/><polygon fill="#181818" points="200.5,307.0156,204.5,317.0156,208.5,307.0156,204.5,311.0156" style="stroke:#181818;stroke-width:1.0;"/><line style="stroke:#181818;stroke-width:1.0;" x1="204.5" x2="204.5" y1="687.8125" y2="722.8125"/><polygon fill="#181818" points="200.5,712.8125,204.5,722.8125,208.5,712.8125,204.5,716.8125" style="stroke:#181818;stroke-width:1.0;"/><line style="stroke:#181818;stroke-width:1.0;" x1="204.5" x2="204.5" y1="757.9063" y2="792.9063"/><polygon fill="#181818" points="200.5,782.9063,204.5,792.9063,208.5,782.9063,204.5,786.9063" style="stroke:#181818;stroke-width:1.0;"/><line style="stroke:#181818;stroke-width:1.0;" x1="204.5" x2="204.5" y1="828" y2="863"/><polygon fill="#181818" points="200.5,853,204.5,863,208.5,853,204.5,857" style="stroke:#181818;stroke-width:1.0;"/><!--SRC=[ZP51IyD048Nl-HL3lQGNYJUfKcal8YY81y5JYCaaMPpCBDb9gvZ-TzDDcwOYn3qCo_BcUszc2Gla35Gi4EOQG7VQsuj7KvIwfWQNiBAMJ9ge4OQsFHFS2sN8BvAz8P5ibx1-Uesk8rWzF-ob7PWyFh19-f4K2BCHR0Pmie5l3tQQr7s6FmqMxzMcuyTYaTjfcQV5gR0QRgHnSOM9QsgiaBLlhz5Yek3l9eUmSGZugPTWMB6k6wjtSz0I6KAMkPSDerWXCbpC3j6dqs2zmNW0jqFNmX6YXQiegjoDVztvYjIb2R_G_J8-3tZqxoc7_dtf6PoPV70Qpxmj3NNumtOGHhk1RcZZUcjWqTFm4-iMErvnEF_77wKa3e_AFI7O1S4F]--></g></svg>