<?xml version="1.0" encoding="utf-8"?>
<!-- Generator: Adobe Illustrator 24.0.1, SVG Export Plug-In . SVG Version: 6.00 Build 0)  -->
<svg version="1.1" id="Icon_x5F_contour" xmlns="http://www.w3.org/2000/svg" xmlns:xlink="http://www.w3.org/1999/xlink" x="0px"
	 y="0px" viewBox="0 0 192 192" style="enable-background:new 0 0 192 192;" xml:space="preserve">
<path d="M64,175.63428v-71.63477L22.3999,135.2002l-4.7998-6.40039l43.95361-32.96484L17.43945,59.07275l5.12109-6.14551
	L64,87.45996V16.8418l63.03662,38.79199L74.78174,95.83008L127.02734,132L64,175.63428z M72,103.63428v56.73145L112.97266,132
	L72,103.63428z M72,31.1582v56.71875l40.96338-31.51074L72,31.1582z M129.45947,146.55371h8.11328v22.93945h12.14941V176h-20.2627
	V146.55371z M153.84326,146.55371h21.53906v6.3833h-13.59033v5.02441h9.88379v6.09521h-9.88379v5.56006H176V176h-22.15674V146.55371
	z"/>
<g>
</g>
<g>
</g>
<g>
</g>
<g>
</g>
<g>
</g>
<g>
</g>
<g>
</g>
<g>
</g>
<g>
</g>
<g>
</g>
<g>
</g>
<g>
</g>
<g>
</g>
<g>
</g>
<g>
</g>
</svg>
