<?xml version="1.0" encoding="utf-8"?>
<!-- Generator: Adobe Illustrator 24.0.1, SVG Export Plug-In . SVG Version: 6.00 Build 0)  -->
<svg version="1.1" id="Icon_x5F_contour" xmlns="http://www.w3.org/2000/svg" xmlns:xlink="http://www.w3.org/1999/xlink" x="0px"
	 y="0px" viewBox="0 0 192 192" style="enable-background:new 0 0 192 192;" xml:space="preserve">
<path d="M32,64c-8.82227,0-16-7.17773-16-16s7.17773-16,16-16s16,7.17773,16,16S40.82227,64,32,64z M32,40c-4.41113,0-8,3.58887-8,8
	s3.58887,8,8,8s8-3.58887,8-8S36.41113,40,32,40z M32,112c-8.82227,0-16-7.17773-16-16s7.17773-16,16-16s16,7.17773,16,16
	S40.82227,112,32,112z M32,88c-4.41113,0-8,3.58887-8,8s3.58887,8,8,8s8-3.58887,8-8S36.41113,88,32,88z M32,160
	c-8.82227,0-16-7.17773-16-16s7.17773-16,16-16s16,7.17773,16,16S40.82227,160,32,160z M32,136c-4.41113,0-8,3.58887-8,8
	s3.58887,8,8,8s8-3.58887,8-8S36.41113,136,32,136z M176,44H56v8h120V44z M176,92H56v8h120V92z M176,140H56v8h120V140z"/>
<g>
</g>
<g>
</g>
<g>
</g>
<g>
</g>
<g>
</g>
<g>
</g>
<g>
</g>
<g>
</g>
<g>
</g>
<g>
</g>
<g>
</g>
<g>
</g>
<g>
</g>
<g>
</g>
<g>
</g>
</svg>
