<?xml version="1.0" encoding="utf-8"?>
<!-- Generator: Adobe Illustrator 24.0.1, SVG Export Plug-In . SVG Version: 6.00 Build 0)  -->
<svg version="1.1" id="Icon_x5F_contour" xmlns="http://www.w3.org/2000/svg" xmlns:xlink="http://www.w3.org/1999/xlink" x="0px"
	 y="0px" viewBox="0 0 192 192" style="enable-background:new 0 0 192 192;" xml:space="preserve">
<path d="M72,80V45.5C72,38.05615,65.80615,32,58.19336,32H32v128h26.19336C65.80615,160,72,153.94385,72,146.5V112
	c8.82227,0,16-7.17773,16-16S80.82227,80,72,80z M64,146.5c0,3.03271-2.60498,5.5-5.80664,5.5H40V40h18.19336
	C61.39502,40,64,42.46729,64,45.5V146.5z M72,104V88c4.41113,0,8,3.58887,8,8S76.41113,104,72,104z M145.26318,85.84229
	c-7.00293,0-11.42188-2.65186-15.32129-4.99121C126.49805,78.78467,123.52344,77,118.73682,77
	c-6.98779,0-11.87646,4.69238-11.92529,4.73975l-5.64014-5.67383C101.45996,75.77734,108.35693,69,118.73682,69
	c7.00293,0,11.42188,2.65186,15.32129,4.99121c3.44385,2.06641,6.41846,3.85107,11.20508,3.85107
	c6.98779,0,11.87646-4.69287,11.92529-4.74023l5.64014,5.67334C162.54004,79.06396,155.64307,85.84229,145.26318,85.84229z
	 M145.26318,104.4209c-7.00244,0-11.42188-2.65137-15.32129-4.99072c-3.44385-2.06641-6.41797-3.85107-11.20508-3.85107
	c-6.98779,0-11.87646,4.69238-11.92529,4.73975l-5.64014-5.67383c0.28857-0.28857,7.18555-7.06592,17.56543-7.06592
	c7.00244,0,11.42188,2.65137,15.32129,4.99072c3.44385,2.06641,6.41797,3.85107,11.20508,3.85107
	c6.98779,0,11.87646-4.69238,11.92529-4.73975l5.64014,5.67383C162.54004,97.64355,155.64307,104.4209,145.26318,104.4209z
	 M145.26318,123c-7.00293,0-11.42188-2.65186-15.32129-4.99121c-3.44385-2.06641-6.41846-3.85107-11.20508-3.85107
	c-6.98779,0-11.87646,4.69287-11.92529,4.74023l-5.64014-5.67334c0.28857-0.28857,7.18555-7.06689,17.56543-7.06689
	c7.00293,0,11.42188,2.65186,15.32129,4.99121C137.50195,113.21533,140.47656,115,145.26318,115
	c6.98779,0,11.87646-4.69238,11.92529-4.73975l5.64014,5.67383C162.54004,116.22266,155.64307,123,145.26318,123z"/>
<g>
</g>
<g>
</g>
<g>
</g>
<g>
</g>
<g>
</g>
<g>
</g>
<g>
</g>
<g>
</g>
<g>
</g>
<g>
</g>
<g>
</g>
<g>
</g>
<g>
</g>
<g>
</g>
<g>
</g>
</svg>
