<?xml version="1.0" encoding="utf-8"?>
<!-- Generator: Adobe Illustrator 24.0.1, SVG Export Plug-In . SVG Version: 6.00 Build 0)  -->
<svg version="1.1" id="Icon_x5F_contour" xmlns="http://www.w3.org/2000/svg" xmlns:xlink="http://www.w3.org/1999/xlink" x="0px"
	 y="0px" viewBox="0 0 192 192" style="enable-background:new 0 0 192 192;" xml:space="preserve">
<path d="M144,48v24h-8v11.28223c0,10.61719-4.4292,15.50977-8.14453,17.74512c-5.08795,3.06024-22.14581,13.6488-27.85547,17.19598
	v34.47412c4.65765,1.64905,8,6.0799,8,11.30255c0,6.62738-5.37256,12-12,12s-12-5.37262-12-12c0-5.22266,3.34235-9.6535,8-11.30255
	v-14.47412c-5.70966-3.54718-22.76746-14.13574-27.85498-17.19598C60.4292,118.79199,56,113.89941,56,103.28223v-7.97968
	C51.34235,93.6535,48,89.2226,48,84c0-6.62744,5.37256-12,12-12s12,5.37256,12,12c0,5.2226-3.34235,9.6535-8,11.30255v7.97968
	c0,5.52246,1.43604,9.18555,4.26855,10.88965C72.4436,116.68347,84.55133,124.18433,92,128.80701V40H80l8-12l8-12l8,12l8,12h-12
	v68.80701c7.44873-4.62268,19.55658-12.12354,23.73193-14.63513C126.56396,92.46777,128,88.80469,128,83.28223V72h-8V48H144z"/>
<g>
</g>
<g>
</g>
<g>
</g>
<g>
</g>
<g>
</g>
<g>
</g>
<g>
</g>
<g>
</g>
<g>
</g>
<g>
</g>
<g>
</g>
<g>
</g>
<g>
</g>
<g>
</g>
<g>
</g>
</svg>
